<svg width="1674" height="511" xmlns="http://www.w3.org/2000/svg" xml:space="preserve" version="1.1">

 <g>
  <title>Layer 1</title>
  <rect stroke="#000" id="svg_148" height="613.00003" width="1843.0002" y="-43.50002" x="-90.00002" fill="#235390"/>
  <g id="svg_1" fill="#FFF" opacity="0.6">
   <circle id="svg_2" r="1.8" cy="405.6" cx="547.3"/>
   <circle id="svg_3" r="1.2" cy="361.2" cx="747.2"/>
   <circle id="svg_4" r="1.5" cy="342.2" cx="648.9"/>
   <circle id="svg_5" r="2" cy="341.6" cx="601.2"/>
   <circle id="svg_6" r="1.6" cy="255.4" cx="576.4"/>
   <circle id="svg_7" r="1.6" cy="241.7" cx="631.2"/>
   <circle id="svg_8" r="1.2" cy="190.7" cx="570.5"/>
   <circle id="svg_9" r="1.2" cy="293.3" cx="460.1"/>
   <circle id="svg_10" r="1.2" cy="365.1" cx="468"/>
   <circle id="svg_11" r="1.2" cy="486.6" cx="470.6"/>
   <circle id="svg_12" r="1.2" cy="465.7" cx="565.9"/>
   <circle id="svg_13" r="1.2" cy="483.1" cx="347.9"/>
   <circle id="svg_14" r="1.6" cy="455.4" cx="145.5"/>
   <circle id="svg_15" r="1.6" cy="430.6" cx="74.3"/>
   <circle id="svg_16" r="1.1" cy="449.6" cx="81.5"/>
   <circle id="svg_17" r="1.1" cy="363.4" cx="35.1"/>
   <circle id="svg_18" r="1.1" cy="359.4" cx="142.2"/>
   <circle id="svg_19" r="1.5" cy="291.5" cx="104.3"/>
   <circle id="svg_20" r="1.1" cy="290.9" cx="76.2"/>
   <circle id="svg_21" r="1.1" cy="217.1" cx="91.9"/>
   <circle id="svg_22" r="1.1" cy="228.8" cx="157.2"/>
   <circle id="svg_23" r="1.1" cy="223.6" cx="47.5"/>
   <circle id="svg_24" r="1.1" cy="360.7" cx="223.8"/>
   <circle id="svg_25" r="1.1" cy="269.3" cx="302.2"/>
   <circle id="svg_26" r="1.1" cy="251" cx="315.3"/>
   <circle id="svg_27" r="1.1" cy="198.8" cx="387.1"/>
   <circle id="svg_28" r="1.1" cy="258.2" cx="485.1"/>
   <circle id="svg_29" r="1.2" cy="51.6" cx="929.7"/>
   <circle id="svg_30" r="1.2" cy="123.4" cx="937.5"/>
   <circle id="svg_31" r="1.2" cy="244.9" cx="940.1"/>
   <circle id="svg_32" r="1.2" cy="241.4" cx="817.4"/>
   <circle id="svg_33" r="1.6" cy="213.8" cx="615"/>
   <circle id="svg_34" r="1.6" cy="188.9" cx="543.8"/>
   <circle id="svg_35" r="1.1" cy="207.9" cx="551"/>
   <circle id="svg_36" r="1.1" cy="117.8" cx="611.7"/>
   <circle id="svg_37" r="1.5" cy="49.8" cx="573.8"/>
   <circle id="svg_38" r="1.1" cy="49.2" cx="545.8"/>
   <circle id="svg_39" r="1.1" cy="119.1" cx="693.4"/>
   <circle id="svg_40" r="1.1" cy="27.6" cx="771.7"/>
   <circle id="svg_41" r="1.1" cy="16.5" cx="954.6"/>
   <circle id="svg_42" r="1.1" cy="300.7" cx="557.6"/>
   <circle id="svg_43" r="1.2" cy="468.9" cx="674.3"/>
   <circle id="svg_44" r="1.2" cy="476.8" cx="750.1"/>
   <circle id="svg_45" r="1.2" cy="480.7" cx="837.6"/>
   <circle id="svg_46" r="1.2" cy="450.7" cx="833.7"/>
   <circle id="svg_47" r="1.2" cy="435" cx="858.5"/>
   <circle id="svg_48" r="1" cy="333.1" cx="919.2"/>
   <circle id="svg_49" r="2.1" cy="394.5" cx="1027"/>
   <circle id="svg_50" r="0.8" cy="382.7" cx="1032.9"/>
   <circle id="svg_51" r="0.8" cy="282.2" cx="1036.1"/>
   <circle id="svg_52" r="0.8" cy="209" cx="1079.9"/>
   <circle id="svg_53" r="0.8" cy="214.2" cx="1003.5"/>
   <circle id="svg_54" r="1" cy="479.4" cx="1072.2"/>
   <circle id="svg_55" r="1" cy="457.8" cx="999.7"/>
   <circle id="svg_56" r="1" cy="503.5" cx="982.7"/>
   <circle id="svg_57" r="1" cy="330.8" cx="953.9"/>
   <circle id="svg_58" r="1" cy="286.7" cx="950.3"/>
   <circle id="svg_59" r="1" cy="279.2" cx="837.3"/>
   <circle id="svg_60" r="1" cy="243.3" cx="876.5"/>
   <circle id="svg_61" r="1" cy="238.1" cx="728.9"/>
   <circle id="svg_62" r="1.2" cy="447.4" cx="669.1"/>
   <circle id="svg_63" r="1.2" cy="207.1" cx="1161.5"/>
   <circle id="svg_64" r="1.5" cy="188.2" cx="1063.2"/>
   <circle id="svg_65" r="1.6" cy="87.6" cx="1045.5"/>
   <circle id="svg_66" r="1.2" cy="340.8" cx="1427.8"/>
   <circle id="svg_67" r="1.2" cy="412.7" cx="1435.6"/>
   <circle id="svg_68" r="1.2" cy="90.8" cx="1354.4"/>
   <circle id="svg_69" r="1.2" cy="87.3" cx="1231.7"/>
   <circle id="svg_70" r="1.6" cy="59.7" cx="1029.3"/>
   <circle id="svg_71" r="1.1" cy="407" cx="1109.9"/>
   <circle id="svg_72" r="1.1" cy="408.3" cx="1191.5"/>
   <circle id="svg_73" r="1.2" cy="393.1" cx="1598.4"/>
   <circle id="svg_74" r="1.2" cy="282.6" cx="180.3"/>
   <circle id="svg_75" r="1.1" cy="459.2" cx="1280.4"/>
   <circle id="svg_76" r="1.1" cy="460.5" cx="1362.1"/>
   <circle id="svg_77" r="1.2" cy="314.9" cx="1088.6"/>
   <circle id="svg_78" r="1.2" cy="322.7" cx="1164.4"/>
   <circle id="svg_79" r="1.2" cy="326.6" cx="1251.9"/>
   <circle id="svg_80" r="1.2" cy="296.6" cx="1248"/>
   <circle id="svg_81" r="1.2" cy="280.9" cx="1272.8"/>
   <circle id="svg_82" r="1" cy="179" cx="1333.5"/>
   <circle id="svg_83" r="2.1" cy="240.4" cx="1441.3"/>
   <circle id="svg_84" r="0.8" cy="228.7" cx="1447.2"/>
   <circle id="svg_85" r="0.8" cy="128.1" cx="1450.4"/>
   <circle id="svg_86" r="0.8" cy="54.9" cx="1494.2"/>
   <circle id="svg_87" r="0.8" cy="60.2" cx="1417.8"/>
   <circle id="svg_88" r="1" cy="325.3" cx="1486.5"/>
   <circle id="svg_89" r="1" cy="303.8" cx="1414"/>
   <circle id="svg_90" r="1" cy="349.5" cx="1397"/>
   <circle id="svg_91" r="1" cy="176.7" cx="1368.2"/>
   <circle id="svg_92" r="1" cy="132.7" cx="1364.6"/>
   <circle id="svg_93" r="1" cy="125.2" cx="1251.6"/>
   <circle id="svg_94" r="1" cy="89.2" cx="1290.8"/>
   <circle id="svg_95" r="1" cy="84" cx="1143.2"/>
   <circle id="svg_96" r="1.2" cy="293.3" cx="1083.4"/>
   <circle id="svg_97" r="1.2" cy="55.8" cx="148.5"/>
   <circle id="svg_98" r="1.5" cy="36.8" cx="50.1"/>
   <circle id="svg_99" r="1.2" cy="163.5" cx="75.6"/>
   <circle id="svg_100" r="1.2" cy="171.4" cx="151.3"/>
   <circle id="svg_101" r="1.2" cy="175.3" cx="238.8"/>
   <circle id="svg_102" r="1.2" cy="145.2" cx="234.9"/>
   <circle id="svg_103" r="1.2" cy="129.6" cx="259.7"/>
   <circle id="svg_104" r="1" cy="27.7" cx="320.5"/>
   <circle id="svg_105" r="2.1" cy="89.1" cx="428.2"/>
   <circle id="svg_106" r="0.8" cy="77.3" cx="434.1"/>
   <circle id="svg_107" r="1" cy="174" cx="473.4"/>
   <circle id="svg_108" r="1" cy="152.4" cx="400.9"/>
   <circle id="svg_109" r="1.6" cy="453.8" cx="342.9"/>
   <circle id="svg_110" r="1.6" cy="440.1" cx="397.7"/>
   <circle id="svg_111" r="1.2" cy="389.2" cx="337"/>
   <circle id="svg_112" r="1.1" cy="397.2" cx="153.6"/>
   <circle id="svg_113" r="1.1" cy="456.7" cx="251.6"/>
   <circle id="svg_114" r="1.6" cy="412.2" cx="381.5"/>
   <circle id="svg_115" r="1.6" cy="387.4" cx="310.3"/>
   <circle id="svg_116" r="1.1" cy="406.3" cx="317.5"/>
   <circle id="svg_117" r="1" cy="372.4" cx="239.9"/>
   <circle id="svg_118" r="1" cy="350.9" cx="167.4"/>
   <circle id="svg_119" r="1.5" cy="498.2" cx="1500"/>
   <circle id="svg_120" r="2" cy="450.5" cx="1500.7"/>
   <circle id="svg_121" r="1.6" cy="425.7" cx="1586.9"/>
   <circle id="svg_122" r="1.6" cy="480.6" cx="1600.6"/>
   <circle id="svg_123" r="1.2" cy="419.8" cx="1651.6"/>
   <circle id="svg_124" r="1.2" cy="309.5" cx="1549"/>
   <circle id="svg_125" r="1.2" cy="317.3" cx="1477.2"/>
   <circle id="svg_126" r="1.1" cy="109.5" cx="134.6"/>
   <circle id="svg_127" r="1.5" cy="71.7" cx="202.5"/>
   <circle id="svg_128" r="1.1" cy="43.6" cx="203.2"/>
   <circle id="svg_129" r="1.1" cy="59.3" cx="277"/>
   <circle id="svg_130" r="1.1" cy="173.8" cx="724.6"/>
   <circle id="svg_131" r="1.5" cy="135.9" cx="792.5"/>
   <circle id="svg_132" r="1.1" cy="107.8" cx="793.2"/>
   <circle id="svg_133" r="1.1" cy="123.5" cx="867"/>
   <circle id="svg_134" r="1.1" cy="6.6" cx="1613.5"/>
   <circle id="svg_135" r="1.1" cy="73.2" cx="1481.5"/>
   <circle id="svg_136" r="1.1" cy="151.5" cx="1573"/>
   <circle id="svg_137" r="1.1" cy="164.6" cx="1591.3"/>
   <circle id="svg_138" r="1.1" cy="236.4" cx="1643.5"/>
   <circle id="svg_139" r="1.1" cy="334.4" cx="1584.1"/>
   <circle id="svg_140" r="1.6" cy="282" cx="202.6"/>
   <circle id="svg_141" r="1.6" cy="393.1" cx="1653.3"/>
   <circle id="svg_142" r="1.1" cy="400.3" cx="1634.4"/>
   <circle id="svg_143" r="1.1" cy="406.9" cx="1541.6"/>
   <circle id="svg_144" r="1" cy="89.2" cx="1469.9"/>
   <circle id="svg_145" r="1" cy="16.7" cx="1491.4"/>
   <circle id="svg_146" r="1" cy="25.4" cx="355.1"/>
   <circle id="svg_147" r="1.2" cy="142" cx="70.3"/>
  </g>
 </g>
</svg>